<svg width="26" height="26" viewBox="0 0 26 26" fill="none" xmlns="http://www.w3.org/2000/svg">
<path d="M8.9324 0.712589C5.70187 1.79568 2.94914 4.1645 1.41588 7.16221C0.881026 8.19639 0.495929 9.29346 0.260592 10.4324C-0.324185 13.2555 0.0823065 16.2672 1.40875 18.8386C2.27165 20.5157 3.51252 22.011 5.01012 23.178C6.42927 24.282 8.07663 25.1066 9.83096 25.5608C12.0417 26.1407 14.3951 26.1268 16.6201 25.6306C18.6311 25.1764 20.5352 24.2331 22.0542 22.8635C23.6588 21.4171 24.807 19.5164 25.4131 17.469C26.0763 15.24 26.1619 12.8572 25.7483 10.5652H13.2683V15.6383H20.4996C20.2214 17.2594 19.2373 18.7408 17.8467 19.6562C16.9695 20.2362 15.964 20.6065 14.9228 20.7882C13.8816 20.9629 12.7976 20.9838 11.7564 20.7812C10.6939 20.5716 9.68834 20.1383 8.80404 19.5304C7.39202 18.5591 6.31517 17.1406 5.76605 15.5404C5.20267 13.9123 5.19554 12.1025 5.76605 10.4814C6.16541 9.33538 6.8215 8.28024 7.69154 7.41377C8.76125 6.33767 10.1519 5.56902 11.6566 5.25458C12.9403 4.98905 14.2952 5.03796 15.5504 5.40831C16.6201 5.72275 17.6042 6.30273 18.4101 7.0574L20.849 4.66761C21.2769 4.24137 21.7262 3.82909 22.1398 3.38887C20.9061 2.27084 19.4513 1.36943 17.8681 0.796441C15.0155 -0.237735 11.8064 -0.258698 8.9324 0.712589Z" fill="white"/>
<path d="M8.9325 0.71252C13.1925 -0.748813 18.2312 0.0539456 21.6649 2.97094C22.6802 3.4658 21.2723 4.05284 20.9295 4.58083C20.0908 5.40488 19.2493 6.22719 18.41 7.05034C16.0687 4.79123 12.1778 4.46728 9.39156 6.1112C7.69499 7.07131 6.38994 8.65681 5.76594 10.4743C4.3179 9.37025 2.86645 8.27039 1.41577 7.16913C2.94325 4.17345 5.69627 1.79666 8.93229 0.71252H8.9325Z" fill="#EA4335"/>
<path d="M0.267657 10.4253C0.503272 9.29172 0.889075 8.18725 1.42295 7.15503C2.87098 8.25936 4.32244 9.35929 5.77312 10.4602C5.20374 12.0847 5.2015 13.8951 5.77312 15.5193C4.32658 16.6226 2.88004 17.7253 1.43008 18.8244C0.0892286 16.2607 -0.317049 13.2462 0.267657 10.4253Z" fill="#FBBC05"/>
<path d="M13.2684 10.5581H25.7484C26.4086 14.2324 25.7942 18.2585 23.4833 21.2968C23.0579 21.8587 22.5799 22.3827 22.0543 22.8565L17.8396 19.6491C19.2295 18.7352 20.2156 17.2498 20.4925 15.6312H13.2612C13.2684 13.9402 13.2684 12.2492 13.2684 10.5582V10.5581Z" fill="#4285F4"/>
<path d="M1.41584 18.8315C2.8658 17.7327 4.31234 16.6295 5.75888 15.5264C6.76263 18.5486 9.76567 20.8495 13.0315 20.9111C14.7109 20.9519 16.4356 20.5723 17.8394 19.6421L22.0541 22.8495C19.0715 25.5571 14.7073 26.4579 10.7715 25.7565C6.77004 25.0409 3.22715 22.3933 1.41577 18.8317L1.41584 18.8315Z" fill="#34A853"/>
</svg>
