<svg width="244" height="235" viewBox="0 0 244 235" fill="none" xmlns="http://www.w3.org/2000/svg">
<g clip-path="url(#clip0)">
<path d="M64.5481 61.0769C59.4807 63.9726 58.7568 59.991 64.0052 57.0953C76.1308 50.3991 94.7717 40.8072 113.413 34.4729C118.661 16.9179 121.919 7.8689 122.643 6.24008C123.728 3.34441 127.529 2.98245 126.081 6.78302C125.357 8.59282 121.919 18.9086 117.756 33.0251C127.167 30.1294 136.397 28.3196 144.541 28.3196C170.421 28.3196 184.719 33.749 184.719 48.9513C184.719 66.6873 163.906 81.8895 143.455 92.0244C134.587 96.5489 112.689 107.408 95.8576 115.733L92.238 129.849L146.713 127.496C151.961 127.315 153.228 131.84 148.885 132.021C145.989 132.202 115.041 133.469 91.1521 134.193C85.9037 155.186 81.7412 172.379 80.8363 177.085C79.2075 184.686 79.2075 185.41 80.2933 184.867C81.3792 184.324 82.1031 185.229 78.6645 189.029C75.4069 192.649 73.5971 190.658 75.2259 184.143L87.7135 134.374C75.9498 134.736 65.634 135.098 64.1862 134.917C59.4807 134.736 56.0421 130.573 62.7383 127.677C66.1769 126.23 78.1216 120.257 93.1429 112.656L98.5723 90.0336C103.64 69.221 108.164 52.5708 111.784 39.7213C94.7717 45.6936 76.8547 54.1997 64.5481 61.0769V61.0769ZM102.011 90.2146L97.1244 110.484L139.293 88.9477C167.706 74.6504 181.642 60.353 181.642 48.0464C181.642 38.0925 166.983 32.4821 144.541 32.4821C136.94 32.4821 126.805 34.8349 116.127 38.2735C111.603 53.6567 106.354 72.4786 102.011 90.2146V90.2146ZM88.7994 130.03L91.876 117.543C84.2749 121.343 77.9406 124.239 75.2259 125.325C65.996 129.125 64.9101 130.573 71.7873 130.573C73.5971 130.573 80.6553 130.392 88.7994 130.03Z" fill="white" stroke="white" stroke-width="3"/>
<path d="M14.1303 233.945L7.3522 222.166H3.68535V233.945H0V207.759H8.81526C14.2971 207.759 16.7972 211.111 16.7972 215.222C16.7972 218.87 14.6489 221.407 11.0561 222.019L18.4454 233.945H14.1304L14.1303 233.945ZM3.68487 210.944V219.351H8.31471C11.7223 219.351 13.2594 217.648 13.2594 215.166C13.2594 212.722 11.7222 210.944 8.31471 210.944H3.68487V210.944ZM43.5343 211.074H33.052V219.222H42.2932V222.519H33.052V230.612H43.5343V233.945H29.2924V207.759H43.5343V211.074V211.074ZM65.3455 207.759C70.1421 207.759 73.2348 211.388 73.2348 215.87C73.2348 220.408 70.1421 223.908 65.3455 223.908H58.9378V233.945H55.2525V207.759H65.346L65.3455 207.759ZM64.7899 220.722C67.8641 220.722 69.5864 218.741 69.5864 215.815C69.5864 213 67.8641 210.926 64.7899 210.926H58.9377V220.722H64.7899V220.722ZM98.4538 233.945L91.6757 222.166H88.0089V233.945H84.3235V207.759H93.1388C98.6206 207.759 101.121 211.111 101.121 215.222C101.121 218.87 98.9724 221.407 95.3796 222.019L102.769 233.945H98.4539L98.4538 233.945ZM88.0084 210.944V219.351H92.6382C96.0458 219.351 97.5829 217.648 97.5829 215.166C97.5829 212.722 96.0457 210.944 92.6382 210.944H88.0084ZM127.858 211.074H117.376V219.222H126.617V222.519H117.376V230.612H127.858V233.945H113.616V207.759H127.858V211.074V211.074ZM147.78 234.297C142.317 234.297 138.317 231.686 137.428 227.241L141.187 226.352C141.78 229.408 144.428 231.167 147.91 231.167C150.706 231.167 153.392 230.019 153.336 226.87C153.299 223.759 149.928 222.907 146.354 221.926C142.298 220.815 138.243 219.537 138.243 214.722C138.243 209.851 142.261 207.407 147.021 207.407C151.632 207.407 155.781 209.351 156.762 213.851L153.187 214.759C152.539 211.851 150.113 210.555 147.187 210.555C144.557 210.555 141.946 211.703 141.946 214.685C141.946 217.389 144.872 218.185 148.187 219.074C152.354 220.204 157.132 221.5 157.132 226.759C157.132 232.056 152.687 234.297 147.78 234.297L147.78 234.297ZM182.907 211.074H172.424V219.222H181.666V222.519H172.424V230.612H182.907V233.945H168.665V207.759H182.907V211.074V211.074ZM212.274 207.759H215.941V233.945H211.959L198.273 213.166V233.945H194.625V207.759H198.569L212.274 228.444V207.759H212.274ZM243.326 207.759V211.074H236.696V233.945H233.048V211.074H226.399V207.759H243.326H243.326Z" fill="white"/>
</g>
<defs>
<clipPath id="clip0">
<rect width="243.326" height="234.297" fill="white"/>
</clipPath>
</defs>
</svg>
